<svg width="28" height="28" viewBox="0 0 28 28" fill="none" xmlns="http://www.w3.org/2000/svg">
<path d="M10.4997 5.83333H8.16634C7.5475 5.83333 6.95401 6.07917 6.51643 6.51675C6.07884 6.95434 5.83301 7.54783 5.83301 8.16667V22.1667C5.83301 22.7855 6.07884 23.379 6.51643 23.8166C6.95401 24.2542 7.5475 24.5 8.16634 24.5H19.833C20.4518 24.5 21.0453 24.2542 21.4829 23.8166C21.9205 23.379 22.1663 22.7855 22.1663 22.1667V8.16667C22.1663 7.54783 21.9205 6.95434 21.4829 6.51675C21.0453 6.07917 20.4518 5.83333 19.833 5.83333H17.4997M10.4997 5.83333C10.4997 6.45217 10.7455 7.04566 11.1831 7.48325C11.6207 7.92083 12.2142 8.16667 12.833 8.16667H15.1663C15.7852 8.16667 16.3787 7.92083 16.8163 7.48325C17.2538 7.04566 17.4997 6.45217 17.4997 5.83333M10.4997 5.83333C10.4997 5.21449 10.7455 4.621 11.1831 4.18342C11.6207 3.74583 12.2142 3.5 12.833 3.5H15.1663C15.7852 3.5 16.3787 3.74583 16.8163 4.18342C17.2538 4.621 17.4997 5.21449 17.4997 5.83333M13.9997 14H17.4997M13.9997 18.6667H17.4997M10.4997 14H10.5113M10.4997 18.6667H10.5113" stroke="currentColor" stroke-width="1.5" stroke-linecap="round" stroke-linejoin="round"/>
</svg>
