<svg width="28" height="28" viewBox="0 0 28 28" fill="none" xmlns="http://www.w3.org/2000/svg">
<path d="M9.83333 4.27778H7.05555C6.31884 4.27778 5.6123 4.57044 5.09136 5.09137C4.57043 5.6123 4.27777 6.31884 4.27777 7.05556V23.7222C4.27777 24.4589 4.57043 25.1655 5.09136 25.6864C5.6123 26.2073 6.31884 26.5 7.05555 26.5H20.9444C21.6812 26.5 22.3877 26.2073 22.9086 25.6864C23.4296 25.1655 23.7222 24.4589 23.7222 23.7222V7.05556C23.7222 6.31884 23.4296 5.6123 22.9086 5.09137C22.3877 4.57044 21.6812 4.27778 20.9444 4.27778H18.1667M9.83333 4.27778C9.83333 5.01449 10.126 5.72103 10.6469 6.24196C11.1679 6.7629 11.8744 7.05556 12.6111 7.05556H15.3889C16.1256 7.05556 16.8321 6.7629 17.3531 6.24196C17.874 5.72103 18.1667 5.01449 18.1667 4.27778M9.83333 4.27778C9.83333 3.54107 10.126 2.83453 10.6469 2.31359C11.1679 1.79266 11.8744 1.5 12.6111 1.5H15.3889C16.1256 1.5 16.8321 1.79266 17.3531 2.31359C17.874 2.83453 18.1667 3.54107 18.1667 4.27778M14 14H18.1667H14ZM14 19.5556H18.1667H14ZM9.83333 14H9.84722H9.83333ZM9.83333 19.5556H9.84722H9.83333Z" fill="#1F6B43"/>
<path d="M9.83333 4.27778H7.05555C6.31884 4.27778 5.6123 4.57044 5.09136 5.09137C4.57043 5.6123 4.27777 6.31884 4.27777 7.05556V23.7222C4.27777 24.4589 4.57043 25.1655 5.09136 25.6864C5.6123 26.2073 6.31884 26.5 7.05555 26.5H20.9444C21.6812 26.5 22.3877 26.2073 22.9086 25.6864C23.4296 25.1655 23.7222 24.4589 23.7222 23.7222V7.05556C23.7222 6.31884 23.4296 5.6123 22.9086 5.09137C22.3877 4.57044 21.6812 4.27778 20.9444 4.27778H18.1667M9.83333 4.27778C9.83333 5.01449 10.126 5.72103 10.6469 6.24196C11.1679 6.7629 11.8744 7.05556 12.6111 7.05556H15.3889C16.1256 7.05556 16.8321 6.7629 17.3531 6.24196C17.874 5.72103 18.1667 5.01449 18.1667 4.27778M9.83333 4.27778C9.83333 3.54107 10.126 2.83453 10.6469 2.31359C11.1679 1.79266 11.8744 1.5 12.6111 1.5H15.3889C16.1256 1.5 16.8321 1.79266 17.3531 2.31359C17.874 2.83453 18.1667 3.54107 18.1667 4.27778M14 14H18.1667M14 19.5556H18.1667M9.83333 14H9.84722M9.83333 19.5556H9.84722" stroke="white" stroke-linecap="round" stroke-linejoin="round"/>
</svg>
