<svg width="21" height="21" viewBox="0 0 21 21" fill="none" xmlns="http://www.w3.org/2000/svg">
<g clip-path="url(#clip0_1227_1562)">
<path d="M18.3378 10.9061C18.3378 6.79169 15.0025 3.45629 10.888 3.45629C6.77362 3.45629 3.43823 6.79169 3.43823 10.9061C3.43823 15.0205 6.77362 18.3559 10.888 18.3559C15.0025 18.3559 18.3378 15.0205 18.3378 10.9061ZM19.9934 10.9061C19.9934 15.9348 15.9168 20.0114 10.888 20.0114C5.85931 20.0114 1.78271 15.9348 1.78271 10.9061C1.78271 5.87737 5.85931 1.80078 10.888 1.80078C15.9168 1.80078 19.9934 5.87737 19.9934 10.9061Z" fill="#1F6B43"/>
<path d="M10.0603 5.93957C10.0603 5.48242 10.4309 5.11182 10.8881 5.11182C11.3452 5.11182 11.7158 5.48242 11.7158 5.93957V10.3944L14.5693 11.8212C14.9782 12.0256 15.144 12.523 14.9395 12.9319C14.7351 13.3407 14.2378 13.5065 13.8289 13.3021L10.5178 11.6466C10.2374 11.5064 10.0603 11.2196 10.0603 10.9061V5.93957Z" fill="#1F6B43"/>
</g>
<defs>
<clipPath id="clip0_1227_1562">
<rect width="19.8662" height="19.8662" fill="white" transform="translate(0.954956 0.973145)"/>
</clipPath>
</defs>
</svg>
