<svg width="28" height="28" viewBox="0 0 28 28" fill="none" xmlns="http://www.w3.org/2000/svg">
<path d="M14.99 3.21068C14.7274 2.94822 14.3714 2.80078 14.0002 2.80078C13.6289 2.80078 13.2729 2.94822 13.0104 3.21068L3.21038 13.0107C2.95536 13.2747 2.81425 13.6284 2.81744 13.9954C2.82063 14.3625 2.96786 14.7137 3.22743 14.9732C3.487 15.2328 3.83814 15.38 4.20522 15.3832C4.57229 15.3864 4.92594 15.2453 5.18998 14.9903L5.60018 14.5801V23.8005C5.60018 24.1718 5.74768 24.5279 6.01023 24.7904C6.27278 25.053 6.62888 25.2005 7.00018 25.2005H9.80018C10.1715 25.2005 10.5276 25.053 10.7901 24.7904C11.0527 24.5279 11.2002 24.1718 11.2002 23.8005V21.0005C11.2002 20.6292 11.3477 20.2731 11.6102 20.0105C11.8728 19.748 12.2289 19.6005 12.6002 19.6005H15.4002C15.7715 19.6005 16.1276 19.748 16.3901 20.0105C16.6527 20.2731 16.8002 20.6292 16.8002 21.0005V23.8005C16.8002 24.1718 16.9477 24.5279 17.2102 24.7904C17.4728 25.053 17.8289 25.2005 18.2002 25.2005H21.0002C21.3715 25.2005 21.7276 25.053 21.9901 24.7904C22.2527 24.5279 22.4002 24.1718 22.4002 23.8005V14.5801L22.8104 14.9903C23.0744 15.2453 23.4281 15.3864 23.7951 15.3832C24.1622 15.38 24.5134 15.2328 24.7729 14.9732C25.0325 14.7137 25.1797 14.3625 25.1829 13.9954C25.1861 13.6284 25.045 13.2747 24.79 13.0107L14.99 3.21068Z" fill="#1F6B43"/>
</svg>
