<svg width="28" height="28" viewBox="0 0 28 28" fill="none" xmlns="http://www.w3.org/2000/svg">
<path fill-rule="evenodd" clip-rule="evenodd" d="M7.06993 5.67031C8.90788 3.83235 11.4007 2.7998 13.9999 2.7998C16.5992 2.7998 19.092 3.83235 20.9299 5.67031C22.7679 7.50826 23.8004 10.0011 23.8004 12.6003C23.8004 15.1996 22.7679 17.6924 20.9299 19.5303L13.9999 26.4603L7.06993 19.5303C6.15981 18.6203 5.43785 17.5399 4.94529 16.3508C4.45274 15.1618 4.19922 13.8873 4.19922 12.6003C4.19922 11.3133 4.45274 10.0388 4.94529 8.84978C5.43785 7.66072 6.15981 6.58033 7.06993 5.67031ZM13.9999 15.4003C14.7425 15.4003 15.4547 15.1053 15.9798 14.5802C16.5049 14.0551 16.7999 13.3429 16.7999 12.6003C16.7999 11.8577 16.5049 11.1455 15.9798 10.6204C15.4547 10.0953 14.7425 9.80031 13.9999 9.80031C13.2573 9.80031 12.5451 10.0953 12.02 10.6204C11.4949 11.1455 11.1999 11.8577 11.1999 12.6003C11.1999 13.3429 11.4949 14.0551 12.02 14.5802C12.5451 15.1053 13.2573 15.4003 13.9999 15.4003Z" fill="#1F6B43"/>
</svg>
