<svg width="250" height="250" viewBox="0 0 250 250" fill="none" xmlns="http://www.w3.org/2000/svg">
<path d="M192.375 152.84L149.888 159.173C147.838 149.994 146.748 145.42 146.032 142.134C143.034 128.482 131.173 123.799 127.888 122.761C127.475 125.236 113.058 133.809 106.514 129.89C82.5609 161.164 67.7876 181.603 36.1317 211.565C31.2636 216.079 45.4424 231.579 50.3341 227.137C80.7985 199.839 96.9946 184.899 119.972 156.932L115.53 142.186L134.577 174.91C135.93 177.231 137.964 179.081 140.401 180.21C142.84 181.338 145.566 181.69 148.211 181.22L195.945 172.618C200.223 171.92 196.757 152.049 192.375 152.84Z" fill="#F7DFC7"/>
<path d="M85.8504 49.5043L78.7137 16.3522L67.7252 18.7153C67.1553 18.848 66.6348 19.1399 66.2244 19.5568C65.8138 19.9738 65.5301 20.4988 65.4064 21.0707C65.2826 21.6426 65.3238 22.2378 65.5251 22.7873C65.7264 23.3367 66.0796 23.8177 66.5437 24.1741C67.6016 24.9893 68.4045 26.0899 68.8579 27.3461C69.3112 28.6024 69.3962 29.962 69.1027 31.265C68.8091 32.5678 68.1493 33.7597 67.2011 34.7002C66.2527 35.6406 65.0555 36.2905 63.7502 36.5733C62.4449 36.856 61.086 36.7599 59.8335 36.2961C58.581 35.8323 57.4872 35.0202 56.6808 33.9556C55.8744 32.8909 55.3891 31.6181 55.282 30.2868C55.1749 28.9556 55.4504 27.6214 56.0763 26.4415C56.3496 25.9258 56.471 25.3432 56.4262 24.7613C56.3816 24.1793 56.1725 23.6221 55.8234 23.1544C55.4744 22.6866 54.9997 22.3276 54.4545 22.1191C53.9095 21.9106 53.3164 21.8611 52.7442 21.9764L42.4883 24.1741L49.6287 57.3263C49.7979 58.1097 50.2714 58.7938 50.945 59.2281C51.6187 59.6623 52.4372 59.8113 53.2206 59.6421L70.0684 56.0266C70.2264 54.3176 70.5336 50.8227 71.3445 49.7406C72.2661 48.5131 72.9278 52.6013 73.3768 55.294L83.5383 53.0963C84.3208 52.9259 85.0038 52.4519 85.4372 51.7785C85.8707 51.1052 86.0193 50.2873 85.8504 49.5043Z" fill="#F7DFC7"/>
<path d="M115.695 82.7288L113.433 85.3046C113.348 84.7127 113.191 84.1333 112.965 83.5795C113.9 83.3814 114.814 83.0965 115.695 82.7288Z" fill="#F6A656"/>
<path d="M132.142 105.202C131.43 107.123 130.846 109.088 130.393 111.086C133.323 111.203 133.512 111.274 136.301 111.274L132.142 105.202Z" fill="#F6A656"/>
<path d="M122.388 153.927C121.584 154.943 120.757 155.936 119.978 156.928L115.536 142.182L122.388 153.927Z" fill="#F6A656"/>
<path d="M124.674 68.2912C117.165 59.6895 112.576 63.6595 110.075 68.5748C112.722 63.565 116.903 65.0774 117.849 70.6071C117.943 71.2451 118.298 71.1979 118.369 71.1506C118.747 71.0502 119.101 70.8734 119.408 70.6307C121.606 69.0947 123.118 72.9466 119.834 74.0573C119.407 76.4453 119.162 78.8621 119.101 81.2872C119.101 81.2872 132.733 77.4888 124.674 68.2912Z" fill="#F6A656"/>
<path d="M133.371 66.1881C130.582 69.0947 126.217 69.443 123.611 66.9443C121.005 64.4456 121.153 60.0676 123.942 57.161C126.73 54.2543 131.096 53.9061 133.701 56.4048C136.307 58.9035 136.159 63.2815 133.371 66.1881Z" fill="#F6A656"/>
<path d="M35.4501 216.075C21.0898 227.361 12.3164 232.035 12.5489 233.915C13.0464 237.956 27.8856 231.34 35.3282 231.954C37.091 232.139 38.8732 231.979 40.5744 231.481C42.4885 230.891 43.9325 229.284 45.7732 227.417C41.0471 225.044 37.3688 221.003 35.4501 216.075Z" fill="#F6A656"/>
<path d="M207.336 156.03C202.101 152.401 199.874 153.667 195.073 154.92C197.32 159.565 198.244 164.74 197.743 169.877C203.815 169.028 210.999 168.152 215.442 167.887C221.893 167.514 227.54 166.943 227.99 165.878C229.599 162.151 213.431 160.33 207.336 156.03Z" fill="#F6A656"/>
<path d="M186.017 89.3902L181.008 89.8877C182.143 86.6278 184.292 86.389 186.017 89.3902Z" fill="#F6A656"/>
<path d="M186.964 103.76C185.853 106.218 184.081 106.313 182.568 104.115L186.964 103.76Z" fill="#F6A656"/>
<path d="M154.543 43.2434C154.437 43.266 154.328 43.2675 154.222 43.2476C154.116 43.2277 154.014 43.1868 153.925 43.1275C153.834 43.068 153.757 42.9913 153.697 42.9017C153.636 42.8121 153.595 42.7113 153.574 42.6053L151.565 32.7797C151.522 32.5698 151.563 32.351 151.68 32.1715C151.798 31.992 151.982 31.8666 152.191 31.8226C152.401 31.7787 152.62 31.8202 152.8 31.9376C152.979 32.055 153.105 32.2389 153.149 32.4489L155.157 42.2745C155.185 42.3786 155.191 42.4874 155.175 42.5939C155.158 42.7004 155.12 42.8024 155.061 42.8934C155.004 42.9843 154.928 43.0624 154.839 43.1226C154.749 43.1829 154.649 43.224 154.543 43.2434Z" fill="#F6A656"/>
<path d="M100.429 101.752L96.6982 110.849C97.549 110.92 98.4233 110.967 99.274 111.014C98.8007 107.879 99.2004 104.674 100.429 101.752Z" fill="#F6A656"/>
<path d="M8.74418 135.967C8.53814 136.165 8.26315 136.276 7.97719 136.276C7.69123 136.275 7.41665 136.164 7.21132 135.965C7.006 135.766 6.88598 135.495 6.87658 135.209C6.86716 134.923 6.9691 134.645 7.16088 134.433C7.36692 134.235 7.6419 134.124 7.92787 134.124C8.21383 134.125 8.48841 134.236 8.69373 134.435C8.89906 134.634 9.01907 134.905 9.02849 135.191C9.0379 135.477 8.93596 135.755 8.74418 135.967Z" fill="#F6A656"/>
<path d="M115.625 97.9945C115.648 98.2469 115.596 98.5004 115.475 98.723C115.354 98.9458 115.17 99.1276 114.946 99.2456C114.722 99.3637 114.468 99.4127 114.216 99.3863C113.964 99.36 113.725 99.2595 113.53 99.0977C113.336 98.9358 113.193 98.7199 113.121 98.477C113.049 98.2342 113.05 97.9754 113.125 97.7335C113.2 97.4914 113.345 97.277 113.542 97.1174C113.738 96.9579 113.978 96.8601 114.23 96.8366C114.398 96.8204 114.567 96.8375 114.728 96.887C114.889 96.9366 115.039 97.0174 115.169 97.1251C115.298 97.2327 115.405 97.3651 115.484 97.5142C115.562 97.6635 115.61 97.8267 115.625 97.9945Z" fill="#F6A656"/>
<path d="M113.545 106.62C113.568 106.872 113.516 107.126 113.395 107.348C113.275 107.571 113.091 107.753 112.866 107.871C112.642 107.989 112.388 108.038 112.136 108.012C111.884 107.985 111.646 107.885 111.451 107.723C111.256 107.561 111.113 107.345 111.041 107.102C110.969 106.86 110.971 106.601 111.046 106.359C111.12 106.117 111.265 105.902 111.462 105.743C111.659 105.583 111.899 105.485 112.151 105.462C112.319 105.446 112.488 105.463 112.649 105.512C112.81 105.561 112.96 105.642 113.089 105.75C113.219 105.858 113.326 105.99 113.404 106.139C113.483 106.289 113.53 106.452 113.545 106.62Z" fill="#F6A656"/>
<path d="M113.545 116.26C113.568 116.512 113.516 116.766 113.395 116.989C113.275 117.211 113.091 117.393 112.866 117.511C112.642 117.629 112.388 117.678 112.136 117.652C111.884 117.626 111.646 117.525 111.451 117.363C111.256 117.201 111.113 116.986 111.041 116.743C110.969 116.5 110.971 116.241 111.046 115.999C111.12 115.757 111.265 115.543 111.462 115.383C111.659 115.223 111.899 115.126 112.151 115.102C112.318 115.086 112.488 115.103 112.649 115.153C112.81 115.202 112.96 115.283 113.089 115.391C113.219 115.498 113.326 115.631 113.404 115.78C113.482 115.929 113.53 116.092 113.545 116.26Z" fill="#F6A656"/>
<path d="M52.4893 225.219L83.9561 237.46L92.6276 215.13C93.1324 213.899 93.9749 212.839 95.058 212.067C96.1409 211.296 97.42 210.849 98.7471 210.774C100.074 210.699 101.395 211.003 102.557 211.648C103.72 212.294 104.675 213.255 105.314 214.421C106.771 217.096 108.961 219.299 111.628 220.771C114.295 222.243 117.327 222.923 120.367 222.73C123.407 222.536 126.328 221.479 128.787 219.682C131.247 217.884 133.141 215.422 134.248 212.585C135.355 209.747 135.629 206.651 135.036 203.663C134.442 200.676 133.008 197.92 130.903 195.72C128.796 193.518 126.104 191.966 123.146 191.243C120.187 190.521 117.083 190.659 114.199 191.641C112.939 192.075 111.582 192.143 110.286 191.835C108.989 191.528 107.806 190.859 106.875 189.906C105.944 188.952 105.303 187.755 105.027 186.451C104.75 185.148 104.85 183.792 105.314 182.543L111.174 167.494" stroke="#1F6B43" stroke-linecap="round" stroke-linejoin="round"/>
<path d="M33.2959 217.753L11.2492 209.171C10.4055 208.842 9.63484 208.351 8.9811 207.726C8.32735 207.099 7.80337 206.35 7.43909 205.522C7.0748 204.693 6.87735 203.8 6.85802 202.895C6.83868 201.991 6.99783 201.09 7.32638 200.247L32.9887 134.291C33.3169 133.446 33.8084 132.674 34.4352 132.02C35.062 131.365 35.8117 130.841 36.6414 130.476C37.4711 130.112 38.3645 129.915 39.2705 129.897C40.1766 129.878 41.0773 130.038 41.9213 130.368L91.4225 149.603" stroke="#1F6B43" stroke-linecap="round" stroke-linejoin="round"/>
<path d="M208.301 91.9448C208.448 92.508 208.671 93.0486 208.963 93.5517" stroke="#1F6B43" stroke-linecap="round" stroke-linejoin="round"/>
<path d="M208.236 88.6614C208.445 87.666 208.868 86.7278 209.475 85.9118C210.081 85.0958 210.859 84.4213 211.752 83.9351C214.426 82.4782 216.63 80.2874 218.101 77.6208C219.573 74.9541 220.252 71.9226 220.059 68.883C219.865 65.8434 218.808 62.9222 217.01 60.4634C215.213 58.0045 212.751 56.1102 209.914 55.0035C207.075 53.8968 203.981 53.6238 200.993 54.2166C198.006 54.8094 195.25 56.2433 193.05 58.3494C190.849 60.4557 189.297 63.1466 188.575 66.1055C187.853 69.0643 187.99 72.1679 188.973 75.051C189.408 76.3108 189.475 77.6682 189.169 78.9651C188.862 80.2619 188.193 81.4449 187.239 82.3761C186.285 83.3071 185.087 83.9481 183.782 84.2242C182.479 84.5002 181.123 84.3999 179.875 83.9351L155.961 74.6493L149.742 90.6464" stroke="#1F6B43" stroke-linecap="round" stroke-linejoin="round"/>
<path d="M181.363 175.248L197.408 181.466C198.252 181.796 199.153 181.956 200.058 181.938C200.964 181.919 201.858 181.721 202.687 181.357C203.517 180.992 204.266 180.469 204.893 179.815C205.519 179.159 206.011 178.388 206.339 177.543L209.961 168.225M210.711 95.6177C211.251 96.0387 211.848 96.3807 212.483 96.6338L228.056 102.66C228.901 102.988 229.672 103.479 230.326 104.106C230.98 104.733 231.505 105.482 231.869 106.312C232.234 107.142 232.43 108.035 232.449 108.941C232.468 109.847 232.307 110.747 231.978 111.591L213.584 158.907" stroke="#1F6B43" stroke-linecap="round" stroke-linejoin="round"/>
<path d="M128.482 120.065C130.077 120.187 131.586 120.836 132.77 121.91C133.954 122.984 134.747 124.422 135.025 125.996" stroke="#1F6B43" stroke-linecap="round" stroke-linejoin="round"/>
<path d="M102.084 90.7161C105.067 87.7063 109.119 85.9989 113.356 85.9662" stroke="#1F6B43" stroke-linecap="round" stroke-linejoin="round"/>
<path d="M121.957 60.8001L85.2124 46.5281" stroke="#1F6B43" stroke-linecap="round" stroke-linejoin="round"/>
<path d="M141.098 91.0232L148.824 71.2688L134.08 65.5264" stroke="#1F6B43" stroke-linecap="round" stroke-linejoin="round"/>
<path d="M97.2866 141.97L45.4422 121.814C43.7395 121.147 42.3705 119.832 41.6352 118.158C40.8999 116.483 40.8583 114.586 41.5194 112.881L48.4197 94.9933C48.865 93.7432 48.9513 92.3934 48.669 91.0967C48.3866 89.8001 47.7468 88.6083 46.8221 87.6564C45.8974 86.7047 44.7245 86.0309 43.4366 85.7112C42.1486 85.3916 40.7968 85.439 39.5344 85.848C36.6581 86.8195 33.5642 86.95 30.6164 86.2243C27.6685 85.4984 24.989 83.9466 22.8924 81.7509C20.7958 79.5552 19.3693 76.8067 18.7805 73.8284C18.1916 70.8502 18.4649 67.7658 19.5682 64.9374C20.6714 62.1091 22.5588 59.6542 25.0087 57.8613C27.4587 56.0683 30.3693 55.0116 33.3988 54.8155C36.4285 54.6192 39.4512 55.2916 42.1118 56.7535C44.7725 58.2155 46.9608 60.4064 48.4197 63.0688C51.1672 68.1147 58.9219 68.0438 61.106 62.3835L62.0512 59.9494" stroke="#1F6B43" stroke-linecap="round" stroke-linejoin="round"/>
<path d="M112.959 83.5832C113.901 83.3939 114.818 83.1018 115.696 82.7125L113.433 85.2809" stroke="#1F6B43" stroke-linecap="round" stroke-linejoin="round"/>
<path d="M129.826 90.8342C127.184 90.7778 124.577 90.2163 122.146 89.18C120.566 88.3231 119.028 86.7697 119.097 81.2872C119.16 78.8623 119.405 76.4454 119.83 74.0573C123.115 72.9703 121.632 69.137 119.405 70.6308C118.585 71.1805 117.991 71.5225 117.845 70.6308C116.945 65.0699 112.718 63.5886 110.072 68.5985L109.244 70.5126C107.329 75.903 107.043 84.511 112.96 83.5794C113.191 84.1232 113.348 84.6953 113.427 85.2809C113.458 85.8717 112.812 89.037 112.104 89.44C110.66 90.2634 108.157 91.0469 103.667 90.8342" stroke="#1F6B43" stroke-linecap="round" stroke-linejoin="round"/>
<path d="M182.531 104.173C195.452 103.043 197.962 102.263 206.286 101.019C207.137 100.901 208.131 100.715 209.264 100.476C213.449 99.5902 213.754 98.237 208.862 98.3016C206.378 98.3345 203.903 98.0081 201.513 97.3328" stroke="#1F6B43" stroke-linecap="round" stroke-linejoin="round"/>
<path d="M203.292 97.7619C203.315 97.88 206.412 96.936 210.168 95.7719C214.375 94.4734 214.633 92.7632 209.53 93.4796C206.958 93.9688 204.32 94.0168 201.732 93.6214" stroke="#1F6B43" stroke-linecap="round" stroke-linejoin="round"/>
<path d="M200.835 90.7161C200.835 90.7161 210.073 88.1589 210.641 87.9798C214.994 86.5707 215.651 88.1465 211.941 90.1303C208.538 91.9499 204.001 93.8615 204.001 93.8615" stroke="#1F6B43" stroke-linecap="round" stroke-linejoin="round"/>
<path d="M180.888 89.4323C180.632 89.4582 180.445 89.687 180.471 89.9432C180.497 90.1996 180.726 90.3863 180.982 90.3604L180.888 89.4323ZM186.893 89.2981V89.7645C186.904 89.7645 186.914 89.7641 186.925 89.7634L186.893 89.2981ZM199.039 87.5258L199.218 87.9562L199.219 87.9558L199.039 87.5258ZM205.56 84.7136L205.365 84.2901L205.364 84.2905L205.56 84.7136ZM206.978 86.6278L207.219 87.0268L207.229 87.0208L206.978 86.6278ZM202.178 89.9312C202.003 90.1195 202.013 90.4146 202.201 90.5904C202.389 90.7662 202.685 90.7561 202.86 90.568L202.178 89.9312ZM180.935 89.8963L180.982 90.3604C180.981 90.3604 180.982 90.3603 180.982 90.3604C180.982 90.3603 180.985 90.36 180.986 90.3599C180.99 90.3596 180.994 90.3593 180.999 90.3586L181.048 90.3537C181.092 90.3493 181.155 90.3429 181.236 90.3346C181.398 90.3183 181.629 90.295 181.906 90.2669C182.461 90.2108 183.201 90.136 183.942 90.0613C184.685 89.9865 185.428 89.9118 185.988 89.8557C186.268 89.8276 186.503 89.8043 186.669 89.7879C186.752 89.7798 186.817 89.7735 186.863 89.7691C186.885 89.7669 186.901 89.7654 186.914 89.7643C186.942 89.7616 186.919 89.7645 186.893 89.7645V88.8317C186.88 88.8317 186.87 88.8322 186.869 88.8323C186.864 88.8324 186.862 88.8327 186.859 88.8328C186.855 88.8331 186.852 88.8334 186.849 88.8336C186.843 88.8341 186.837 88.8347 186.829 88.8353C186.816 88.8365 186.797 88.8383 186.773 88.8405C186.727 88.845 186.66 88.8515 186.578 88.8597C186.411 88.876 186.176 88.8993 185.895 88.9275C185.334 88.9836 184.592 89.0583 183.849 89.1332C183.108 89.2079 182.368 89.2827 181.812 89.3388C181.535 89.3669 181.305 89.3903 181.143 89.4066C181.062 89.4148 180.997 89.4212 180.955 89.4256C180.933 89.4277 180.916 89.4294 180.905 89.4306L180.893 89.4318C180.892 89.432 180.889 89.4322 180.888 89.4323L180.935 89.8963ZM186.925 89.7634C187.88 89.698 188.94 89.3051 189.796 88.7319C190.639 88.1672 191.378 87.3628 191.536 86.4213L190.615 86.2671C190.519 86.8391 190.029 87.4526 189.277 87.9568C188.536 88.4528 187.629 88.7801 186.859 88.8328L186.925 89.7634ZM191.536 86.4213C191.646 85.7627 191.74 85.0242 191.838 84.3078C191.936 83.5849 192.038 82.8815 192.165 82.2688C192.293 81.6466 192.44 81.1621 192.61 80.8547C192.784 80.5407 192.888 80.5616 192.917 80.5662L193.063 79.6449C192.442 79.5468 192.034 79.9716 191.796 80.4024C191.553 80.8397 191.384 81.4407 191.251 82.0792C191.116 82.7272 191.011 83.4597 190.912 84.1822C190.814 84.9109 190.722 85.6272 190.615 86.2671L191.536 86.4213ZM192.917 80.5662C193.165 80.6057 193.4 80.8094 193.61 81.3606C193.817 81.9024 193.942 82.6403 194.05 83.4787C194.156 84.294 194.247 85.207 194.391 86.0124C194.534 86.8097 194.744 87.5973 195.137 88.1504L195.899 87.6101C195.634 87.2386 195.451 86.6315 195.309 85.8476C195.17 85.0715 195.086 84.2161 194.976 83.3587C194.868 82.5245 194.732 81.6854 194.482 81.0285C194.236 80.3812 193.818 79.7648 193.063 79.6449L192.917 80.5662ZM195.137 88.1504C195.375 88.4849 195.783 88.5806 196.099 88.6076C196.441 88.6367 196.831 88.5987 197.208 88.5338C197.963 88.4036 198.764 88.1454 199.218 87.9562L198.86 87.0952C198.463 87.2606 197.729 87.4974 197.049 87.6146C196.708 87.6735 196.406 87.6975 196.179 87.6781C195.926 87.6566 195.886 87.5933 195.899 87.6101L195.137 88.1504ZM199.219 87.9558C200.614 87.3704 205.298 85.3498 205.757 85.1366L205.364 84.2905C204.922 84.4954 200.256 86.5095 198.859 87.0957L199.219 87.9558ZM205.755 85.1371C206.781 84.6639 207.553 84.4306 208.075 84.3626C208.337 84.3286 208.51 84.3399 208.611 84.365C208.709 84.3894 208.693 84.413 208.672 84.3737C208.652 84.3367 208.679 84.3391 208.647 84.4364C208.615 84.534 208.536 84.6799 208.382 84.8696C208.075 85.2467 207.531 85.7206 206.727 86.2346L207.229 87.0208C208.081 86.4765 208.713 85.9403 209.106 85.4584C209.301 85.2185 209.453 84.9725 209.533 84.7287C209.614 84.4845 209.636 84.1961 209.493 83.9313C209.349 83.6643 209.094 83.5235 208.835 83.4596C208.58 83.3963 208.28 83.3953 207.954 83.4377C207.3 83.5226 206.433 83.7976 205.365 84.2901L205.755 85.1371ZM206.737 86.2289C205.054 87.2481 203.52 88.494 202.178 89.9312L202.86 90.568C204.143 89.1933 205.611 88.0017 207.219 87.0268L206.737 86.2289Z" fill="#1F6B43"/>
<path d="M200.032 88.8728C201.589 91.8413 202.048 95.2638 201.33 98.538" stroke="#1F6B43" stroke-linecap="round" stroke-linejoin="round"/>
<path d="M197.787 90.7396C197.48 94.5679 195.797 97.2146 192.21 97.9235" stroke="#1F6B43" stroke-linecap="round" stroke-linejoin="round"/>
<path d="M130.393 111.086C130.846 109.088 131.43 107.123 132.142 105.202L136.269 111.228" stroke="#1F6B43" stroke-linecap="round" stroke-linejoin="round"/>
<path d="M119.963 156.897L115.53 142.182L122.382 153.927" stroke="#1F6B43" stroke-linecap="round" stroke-linejoin="round"/>
<path d="M106.527 129.872C82.1403 161.678 68.3434 181.55 36.1302 211.561C31.2796 216.085 45.4024 231.562 50.309 227.133L58.7665 219.501C81.7174 198.754 96.5305 185.001 114.677 163.332C114.677 163.332 121.576 154.943 122.379 153.927L134.597 174.887C135.946 177.211 137.978 179.065 140.417 180.194C142.858 181.322 145.585 181.673 148.231 181.196L195.991 172.614C200.268 171.902 196.726 152.075 192.375 152.839L149.887 159.172C149.887 159.172 146.583 144.62 146.032 142.11C145.049 137.543 142.846 133.327 139.66 129.91C136.472 126.494 132.42 124.005 127.931 122.708" stroke="#1F6B43" stroke-linecap="round" stroke-linejoin="round"/>
<path d="M110.075 68.5748C112.58 63.6595 117.165 59.6907 124.678 68.2912C132.711 77.4837 119.101 81.3108 119.101 81.3108" stroke="#1F6B43" stroke-linecap="round" stroke-linejoin="round"/>
<path d="M133.371 66.1881C130.582 69.0947 126.217 69.443 123.611 66.9443C121.005 64.4456 121.153 60.0676 123.942 57.161C126.73 54.2543 131.096 53.9061 133.701 56.4048C136.307 58.9035 136.159 63.2815 133.371 66.1881Z" stroke="#1F6B43" stroke-linecap="round" stroke-linejoin="round"/>
<path d="M45.7734 227.417C43.9301 229.282 42.4849 230.879 40.5745 231.481C38.873 231.977 37.0911 232.138 35.3283 231.954C27.8833 231.361 13.0503 237.955 12.5491 233.915C12.4085 232.781 16.9681 229.425 22.356 225.831C25.7589 223.562 30.9105 219.641 35.4465 216.072" stroke="#1F6B43" stroke-linecap="round" stroke-linejoin="round"/>
<path d="M195.069 154.92C198.071 154.14 200.385 153.269 202.583 153.785C204.295 154.221 205.907 154.981 207.333 156.024C213.447 160.3 229.58 162.138 227.986 165.877C227.534 166.939 221.892 167.509 215.438 167.886C210.996 168.147 203.812 169.02 197.74 169.876" stroke="#1F6B43" stroke-linecap="round" stroke-linejoin="round"/>
<path d="M183.319 87.2908C184.205 87.2174 185.165 87.9126 186.017 89.3902" stroke="#1F6B43" stroke-linecap="round" stroke-linejoin="round"/>
<path d="M186.964 103.76C186.444 104.895 185.735 105.604 184.932 105.675" stroke="#1F6B43" stroke-linecap="round" stroke-linejoin="round"/>
<path d="M155.181 42.2744C155.216 42.4838 155.168 42.6989 155.049 42.8741C154.928 43.0494 154.744 43.1713 154.537 43.2141C154.329 43.2568 154.112 43.2174 153.932 43.1039C153.753 42.9903 153.625 42.8116 153.574 42.6052L151.565 32.7796C151.522 32.5695 151.563 32.3508 151.68 32.1713C151.798 31.9918 151.982 31.8663 152.192 31.8225C152.401 31.7786 152.62 31.8199 152.8 31.9373C152.979 32.0549 153.105 32.2387 153.149 32.4488L155.181 42.2744Z" stroke="#1F6B43" stroke-linecap="round" stroke-linejoin="round"/>
<path d="M151.187 26.8905L152.369 32.6093" stroke="#1F6B43" stroke-linecap="round" stroke-linejoin="round"/>
<path d="M148.281 12.6894C146.877 12.9769 145.589 13.6744 144.582 14.6936C143.573 15.7128 142.89 17.0079 142.619 18.4152C142.347 19.8225 142.499 21.2788 143.054 22.6C143.61 23.9211 144.546 25.0477 145.742 25.8374C146.937 26.6271 148.342 27.0444 149.774 27.0365C151.209 27.0287 152.606 26.596 153.794 25.7932C154.982 24.9904 155.904 23.8537 156.446 22.5264C156.987 21.1994 157.123 19.7414 156.835 18.3372C156.645 17.4046 156.272 16.5185 155.739 15.7298C155.206 14.9412 154.523 14.2653 153.728 13.7408C152.934 13.2164 152.044 12.8535 151.109 12.6731C150.175 12.4927 149.214 12.4982 148.281 12.6894Z" stroke="#1F6B43" stroke-linecap="round" stroke-linejoin="round"/>
<path d="M235.216 145.302L232.451 144.475" stroke="#1F6B43" stroke-linecap="round" stroke-linejoin="round"/>
<path d="M238.572 143.458L239.375 140.694" stroke="#1F6B43" stroke-linecap="round" stroke-linejoin="round"/>
<path d="M236.232 151.399L237.06 148.657" stroke="#1F6B43" stroke-linecap="round" stroke-linejoin="round"/>
<path d="M240.415 146.814L243.156 147.618" stroke="#1F6B43" stroke-linecap="round" stroke-linejoin="round"/>
<path d="M240.42 146.814C239.731 146.611 239.151 146.145 238.806 145.516C238.46 144.886 238.378 144.146 238.577 143.456C238.374 144.145 237.908 144.725 237.278 145.07C236.649 145.416 235.909 145.498 235.219 145.299C235.908 145.502 236.487 145.968 236.833 146.598C237.179 147.227 237.261 147.967 237.062 148.657C237.265 147.968 237.731 147.389 238.36 147.043C238.99 146.697 239.73 146.615 240.42 146.814Z" stroke="#1F6B43" stroke-linecap="round" stroke-linejoin="round"/>
<path d="M64.7717 68.4094C63.3524 65.0035 62.3066 61.4539 61.6523 57.8226" stroke="#1F6B43" stroke-linecap="round" stroke-linejoin="round"/>
<path d="M70.0174 56.0029L53.1932 59.6185C52.4098 59.7876 51.5913 59.6386 50.9177 59.2043C50.2441 58.77 49.7706 58.086 49.6013 57.3026L42.4883 24.1492L52.7442 21.9515C53.3165 21.8335 53.9104 21.8816 54.4561 22.0901C55.0019 22.2987 55.4766 22.6589 55.8244 23.1284C56.1721 23.5978 56.3785 24.157 56.4189 24.7398C56.4593 25.3226 56.3322 25.9048 56.0526 26.4178C55.4266 27.5963 55.1502 28.9288 55.2557 30.259C55.3612 31.5892 55.8444 32.8617 56.6484 33.9267C57.4523 34.9916 58.5436 35.805 59.7939 36.271C61.0443 36.737 62.4017 36.8362 63.7065 36.5573C65.0115 36.2782 66.2095 35.6323 67.1599 34.6956C68.1103 33.759 68.7734 32.5704 69.0714 31.2697C69.3695 29.9691 69.2899 28.6103 68.842 27.3534C68.3942 26.0963 67.5969 24.9934 66.5437 24.1741C66.0816 23.8188 65.7299 23.3396 65.5296 22.7922C65.3294 22.2448 65.2888 21.6518 65.4127 21.0822C65.5365 20.5126 65.8197 19.9899 66.229 19.5751C66.6384 19.1602 67.1573 18.8703 67.7252 18.7389L78.7137 16.3522L85.8504 49.5043C86.0195 50.2876 85.8705 51.1061 85.4362 51.7798C85.002 52.4534 84.318 52.9269 83.5345 53.0963L73.3495 55.294" stroke="#1F6B43" stroke-linecap="round" stroke-linejoin="round"/>
<path d="M69.3088 65.3846C67.9618 63.7304 67.5128 59.7367 69.8759 57.9221C69.8759 57.9221 70.1906 51.2407 71.341 49.7233C72.4915 48.2059 73.1358 54.4918 73.6333 56.8774C73.9604 58.4383 74.8148 62.0526 75.6656 65.0301" stroke="#1F6B43" stroke-linecap="round" stroke-linejoin="round"/>
<path d="M96.7061 110.821L100.453 101.742C99.2258 104.665 98.8173 107.867 99.2719 111.004" stroke="#1F6B43" stroke-linecap="round" stroke-linejoin="round"/>
<path d="M183.319 87.2908C162.621 89.9835 141.475 91.7558 129.826 90.8342C120.468 93.1501 111.678 93.41 103.667 90.8342C99.5317 90.6452 93.7421 89.5581 85.5905 86.8405L78.9029 65.5264C78.1939 63.2105 61.7939 68.2204 62.5028 70.5362L73.3495 104.139C81.3995 108.257 90.2389 110.602 99.2718 111.014C99.8389 115.079 101.8 120.821 106.527 129.872C111.607 132.897 122.571 128.572 127.795 123.137C128.716 118.883 129.543 114.653 130.394 111.086C148.726 111.707 167.057 109.887 184.909 105.675C180.038 106.095 178.357 87.7099 183.319 87.2908Z" stroke="#1F6B43" stroke-linecap="round" stroke-linejoin="round"/>
<path d="M41.9176 206.031C38.2075 209.265 52.2407 225.31 55.9309 222.1" stroke="#1F6B43" stroke-linecap="round" stroke-linejoin="round"/>
<path d="M183.726 154.14C186.987 153.549 190.626 173.587 187.365 174.178" stroke="#1F6B43" stroke-linecap="round" stroke-linejoin="round"/>
<path d="M169.336 210.214L160.403 233.206" stroke="#1F6B43" stroke-linecap="round" stroke-linejoin="round"/>
<path d="M176.377 226.164L153.361 217.256" stroke="#1F6B43" stroke-linecap="round" stroke-linejoin="round"/>
<path d="M9.47693 130.699C9.94955 129.352 10.8003 128.548 13.2579 126.871C18.4605 123.318 17.4867 119.245 14.4158 118.032C13.8731 117.823 13.2909 117.735 12.7103 117.775C12.1298 117.814 11.565 117.981 11.0559 118.263C10.5467 118.544 10.1054 118.934 9.76321 119.405C9.421 119.875 9.18615 120.415 9.0752 120.986" stroke="#1F6B43" stroke-linecap="round" stroke-linejoin="round"/>
<path d="M48.6089 219.027C72.6879 196.47 95.5918 172.69 117.23 147.782" stroke="#1F6B43" stroke-linecap="round" stroke-linejoin="round"/>
<path d="M122.388 127.272C122.388 127.272 135.027 132.849 136.212 142.986C136.872 148.634 140.608 160.308 142.593 166.261C142.936 167.294 143.629 168.176 144.552 168.753C145.475 169.331 146.569 169.57 147.649 169.428L188.081 164.135" stroke="#1F6B43" stroke-linecap="round" stroke-linejoin="round"/>
</svg>
