<svg width="21" height="21" viewBox="0 0 21 21" fill="none" xmlns="http://www.w3.org/2000/svg">
<g clip-path="url(#clip0_1227_1573)">
<path d="M2.08381 17.2847C1.87757 17.2847 1.70701 17.2172 1.57216 17.0824C1.4373 16.9475 1.36987 16.777 1.36987 16.5707C1.36987 16.3645 1.4373 16.1939 1.57216 16.0591C1.70701 15.9242 1.87757 15.8568 2.08381 15.8568H19.6943C19.9006 15.8568 20.0712 15.9242 20.206 16.0591C20.3408 16.1939 20.4083 16.3645 20.4083 16.5707C20.4083 16.777 20.3408 16.9475 20.206 17.0824C20.0712 17.2172 19.9006 17.2847 19.6943 17.2847H2.08381ZM2.08381 14.4289V14.0243C2.08381 11.5652 2.78585 9.58206 4.18994 8.07483C5.59402 6.56761 7.35112 5.59189 9.46119 5.14768V4.43374C9.46119 4.02122 9.59603 3.68014 9.86576 3.41043C10.1355 3.14071 10.4766 3.00586 10.8891 3.00586C11.3016 3.00586 11.6427 3.14071 11.9124 3.41043C12.1821 3.68014 12.317 4.02122 12.317 4.43374V5.14768C14.427 5.59189 16.1841 6.56761 17.5882 8.07483C18.9923 9.58206 19.6943 11.5652 19.6943 14.0243V14.4289H2.08381ZM3.58309 13.001H18.1951C17.9729 10.9702 17.1598 9.37977 15.7558 8.22952C14.3517 7.07927 12.7215 6.50417 10.8653 6.50417C9.00903 6.50417 7.38682 7.07927 5.99858 8.22952C4.61035 9.37977 3.8052 10.9702 3.58309 13.001Z" fill="#1F6B43"/>
</g>
<defs>
<clipPath id="clip0_1227_1573">
<rect width="19.8662" height="19.8662" fill="white" transform="translate(0.956055 0.14502)"/>
</clipPath>
</defs>
</svg>
