<svg width="24" height="24" viewBox="0 0 24 24" fill="none" xmlns="http://www.w3.org/2000/svg">
<path d="M8.8674 13.2672C9.05818 12.8856 9.16585 12.455 9.16585 11.9998C9.16585 11.5446 9.05818 11.114 8.8674 10.7324M8.8674 13.2672C8.5819 13.8379 8.11203 14.2956 7.53393 14.566C6.95582 14.8364 6.30334 14.9038 5.68219 14.7571C5.06104 14.6104 4.50761 14.2584 4.11155 13.7579C3.71548 13.2575 3.5 12.638 3.5 11.9998C3.5 11.3616 3.71548 10.7421 4.11155 10.2417C4.50761 9.74121 5.06104 9.38914 5.68219 9.24247C6.30334 9.0958 6.95582 9.16314 7.53393 9.43356C8.11203 9.70398 8.5819 10.1617 8.8674 10.7324M8.8674 13.2672L15.131 16.3987M8.8674 10.7324L15.131 7.60085M15.131 16.3987C14.7948 17.071 14.7395 17.8492 14.9772 18.5622C15.2149 19.2753 15.7261 19.8647 16.3984 20.2008C17.0707 20.5369 17.849 20.5922 18.5621 20.3546C19.2752 20.1169 19.8646 19.6057 20.2008 18.9335C20.5369 18.2612 20.5923 17.483 20.3546 16.7699C20.1169 16.0569 19.6056 15.4675 18.9333 15.1314C18.6005 14.9649 18.238 14.8657 17.8668 14.8393C17.4956 14.8129 17.1228 14.8599 16.7697 14.9776C16.0566 15.2153 15.4671 15.7265 15.131 16.3987ZM15.131 7.60085C15.2974 7.93365 15.5278 8.23042 15.8089 8.4742C16.0901 8.71797 16.4165 8.904 16.7695 9.02164C17.1226 9.13928 17.4953 9.18624 17.8665 9.15983C18.2377 9.13343 18.6 9.03417 18.9329 8.86774C19.2657 8.70131 19.5625 8.47096 19.8063 8.18983C20.0501 7.90871 20.2361 7.58233 20.3538 7.22932C20.4714 6.8763 20.5184 6.50358 20.492 6.13242C20.4656 5.76125 20.3663 5.39893 20.1999 5.06613C19.8637 4.394 19.2743 3.88293 18.5613 3.64534C17.8483 3.40775 17.0701 3.46311 16.398 3.79924C15.7258 4.13536 15.2147 4.72472 14.9771 5.43766C14.7395 6.1506 14.7948 6.92873 15.131 7.60085Z" stroke="#111111" stroke-width="1.5" stroke-linecap="round" stroke-linejoin="round"/>
</svg>
