<svg width="21" height="21" viewBox="0 0 21 21" fill="none" xmlns="http://www.w3.org/2000/svg">
<path d="M16.4244 17.5277V15.8722C16.4244 15.2136 16.1626 14.5821 15.6969 14.1164C15.2895 13.709 14.7552 13.4575 14.1869 13.401L13.9411 13.3889H7.31908C6.66048 13.3889 6.02904 13.6507 5.56333 14.1164C5.09763 14.5821 4.83581 15.2136 4.83581 15.8722V17.5277C4.83581 17.9849 4.46521 18.3555 4.00805 18.3555C3.5509 18.3555 3.1803 17.9849 3.1803 17.5277V15.8722C3.1803 14.7745 3.61666 13.7221 4.39283 12.9459C5.169 12.1698 6.22141 11.7334 7.31908 11.7334H13.9411C15.0388 11.7334 16.0912 12.1698 16.8674 12.9459C17.6436 13.7221 18.0799 14.7745 18.0799 15.8722V17.5277C18.0799 17.9849 17.7093 18.3555 17.2522 18.3555C16.795 18.3555 16.4244 17.9849 16.4244 17.5277Z" fill="#1F6B43"/>
<path d="M13.1134 5.93908C13.1134 4.5676 12.0016 3.45581 10.6301 3.45581C9.25864 3.45581 8.14685 4.5676 8.14685 5.93908C8.14685 7.31055 9.25864 8.42235 10.6301 8.42235C12.0016 8.42235 13.1134 7.31055 13.1134 5.93908ZM14.7689 5.93908C14.7689 8.22486 12.9159 10.0779 10.6301 10.0779C8.34433 10.0779 6.49133 8.22486 6.49133 5.93908C6.49133 3.65329 8.34433 1.80029 10.6301 1.80029C12.9159 1.80029 14.7689 3.65329 14.7689 5.93908Z" fill="#1F6B43"/>
</svg>
