<svg width="28" height="28" viewBox="0 0 28 28" fill="none" xmlns="http://www.w3.org/2000/svg">
<g clip-path="url(#clip0_1221_1972)">
<path d="M4.44583 22.0611C7.3603 20.4138 10.6522 19.5505 14 19.5556C17.4722 19.5556 20.7319 20.4653 23.5542 22.0611M18.1667 11.2222C18.1667 12.3273 17.7277 13.3871 16.9463 14.1685C16.1649 14.9499 15.1051 15.3889 14 15.3889C12.8949 15.3889 11.8351 14.9499 11.0537 14.1685C10.2723 13.3871 9.83333 12.3273 9.83333 11.2222C9.83333 10.1172 10.2723 9.05735 11.0537 8.27594C11.8351 7.49454 12.8949 7.05556 14 7.05556C15.1051 7.05556 16.1649 7.49454 16.9463 8.27594C17.7277 9.05735 18.1667 10.1172 18.1667 11.2222ZM26.5 14C26.5 15.6415 26.1767 17.267 25.5485 18.7835C24.9203 20.3001 23.9996 21.6781 22.8388 22.8388C21.6781 23.9996 20.3001 24.9203 18.7835 25.5485C17.267 26.1767 15.6415 26.5 14 26.5C12.3585 26.5 10.733 26.1767 9.21646 25.5485C7.69989 24.9203 6.3219 23.9996 5.16117 22.8388C4.00043 21.6781 3.07969 20.3001 2.45151 18.7835C1.82332 17.267 1.5 15.6415 1.5 14C1.5 10.6848 2.81696 7.50537 5.16117 5.16117C7.50537 2.81696 10.6848 1.5 14 1.5C17.3152 1.5 20.4946 2.81696 22.8388 5.16117C25.183 7.50537 26.5 10.6848 26.5 14Z" fill="#1F6B43"/>
<path d="M4.44583 22.0611C7.3603 20.4138 10.6522 19.5505 14 19.5556C17.4722 19.5556 20.7319 20.4653 23.5542 22.0611M18.1667 11.2222C18.1667 12.3273 17.7277 13.3871 16.9463 14.1685C16.1649 14.9499 15.1051 15.3889 14 15.3889C12.8949 15.3889 11.8351 14.9499 11.0537 14.1685C10.2723 13.3871 9.83333 12.3273 9.83333 11.2222C9.83333 10.1172 10.2723 9.05735 11.0537 8.27594C11.8351 7.49454 12.8949 7.05556 14 7.05556C15.1051 7.05556 16.1649 7.49454 16.9463 8.27594C17.7277 9.05735 18.1667 10.1172 18.1667 11.2222ZM26.5 14C26.5 15.6415 26.1767 17.267 25.5485 18.7835C24.9203 20.3001 23.9996 21.6781 22.8388 22.8388C21.6781 23.9996 20.3001 24.9203 18.7835 25.5485C17.267 26.1767 15.6415 26.5 14 26.5C12.3585 26.5 10.733 26.1767 9.21646 25.5485C7.69989 24.9203 6.3219 23.9996 5.16117 22.8388C4.00043 21.6781 3.07969 20.3001 2.45151 18.7835C1.82332 17.267 1.5 15.6415 1.5 14C1.5 10.6848 2.81696 7.50537 5.16117 5.16117C7.50537 2.81696 10.6848 1.5 14 1.5C17.3152 1.5 20.4946 2.81696 22.8388 5.16117C25.183 7.50537 26.5 10.6848 26.5 14Z" stroke="white" stroke-width="1.5" stroke-linecap="round" stroke-linejoin="round"/>
</g>
<defs>
<clipPath id="clip0_1221_1972">
<rect width="28" height="28" fill="white"/>
</clipPath>
</defs>
</svg>
