<svg width="28" height="28" viewBox="0 0 28 28" fill="none" xmlns="http://www.w3.org/2000/svg">
<path d="M20.6002 19.4328L15.65 24.383C15.4335 24.5997 15.1764 24.7716 14.8935 24.8889C14.6105 25.0062 14.3072 25.0665 14.0009 25.0665C13.6946 25.0665 13.3913 25.0062 13.1083 24.8889C12.8254 24.7716 12.5683 24.5997 12.3518 24.383L7.4005 19.4328C6.09525 18.1275 5.20639 16.4645 4.8463 14.654C4.48621 12.8435 4.67107 10.9669 5.3775 9.26151C6.08393 7.55609 7.28021 6.09846 8.81506 5.07292C10.3499 4.04738 12.1544 3.5 14.0003 3.5C15.8463 3.5 17.6508 4.04738 19.1856 5.07292C20.7204 6.09846 21.9167 7.55609 22.6232 9.26151C23.3296 10.9669 23.5144 12.8435 23.1544 14.654C22.7943 16.4645 21.9054 18.1275 20.6002 19.4328Z" stroke="black" stroke-width="1.5" stroke-linecap="round" stroke-linejoin="round"/>
<path d="M17.5 12.833C17.5 13.7613 17.1313 14.6515 16.4749 15.3079C15.8185 15.9643 14.9283 16.333 14 16.333C13.0717 16.333 12.1815 15.9643 11.5251 15.3079C10.8687 14.6515 10.5 13.7613 10.5 12.833C10.5 11.9048 10.8687 11.0145 11.5251 10.3581C12.1815 9.70176 13.0717 9.33301 14 9.33301C14.9283 9.33301 15.8185 9.70176 16.4749 10.3581C17.1313 11.0145 17.5 11.9048 17.5 12.833Z" stroke="black" stroke-width="1.5" stroke-linecap="round" stroke-linejoin="round"/>
</svg>
