<svg width="27" height="28" viewBox="0 0 27 28" fill="none" xmlns="http://www.w3.org/2000/svg">
<path d="M5.51201 12.728C5.51201 13.456 5.80801 14.128 6.28001 14.616C6.34401 14.68 6.40801 14.736 6.47201 14.792V22.392H4.48001C2.66401 22.392 1.20001 20.928 1.20001 19.112V5.47998C1.39201 5.55998 1.60801 5.60798 1.84001 5.60798H8.65601C7.01601 5.63998 5.68801 6.90398 5.54401 8.51198C5.53601 8.61598 5.51201 8.70398 5.51201 8.80798V12.728Z" fill="#2E8B57"/>
<path d="M8.6536 5.61195C8.6736 5.61195 8.692 5.60635 8.712 5.60635H18.5624V3.66955V3.20635C18.5624 1.43915 17.1296 0.00634766 15.3624 0.00634766H3.4384C1.6712 0.00634766 0.238403 1.43915 0.238403 3.20635V4.01195C0.238403 4.66795 0.634404 5.23035 1.1992 5.47755C1.3952 5.56315 1.6104 5.61195 1.8384 5.61195H8.6536Z" fill="#9CC6AE"/>
<path d="M23.816 13.48H22.872V11.08C22.68 11.16 22.464 11.208 22.232 11.208H12.144C11.224 11.208 10.48 11.952 10.48 12.872C10.48 14.288 9.29598 15.424 7.86398 15.352C7.32798 15.328 6.85598 15.112 6.47198 14.792V24.712C6.47198 26.528 7.94398 27.992 9.75198 27.992H19.592C21.408 27.992 22.872 26.528 22.872 24.712V24.28H23.816C25.432 24.28 26.744 22.968 26.744 21.352V16.408C26.744 14.792 25.432 13.48 23.816 13.48ZM11.56 22.928C11.56 23.376 11.192 23.744 10.736 23.744C10.288 23.744 9.91998 23.376 9.91998 22.928V18.232C9.91998 17.776 10.288 17.408 10.736 17.408C11.192 17.408 11.56 17.776 11.56 18.232V22.928ZM15.496 22.928C15.496 23.376 15.128 23.744 14.672 23.744C14.224 23.744 13.856 23.376 13.856 22.928V14.92C13.856 14.464 14.224 14.096 14.672 14.096C15.128 14.096 15.496 14.464 15.496 14.92V22.928ZM19.432 22.928C19.432 23.376 19.064 23.744 18.608 23.744C18.16 23.744 17.792 23.376 17.792 22.928V14.92C17.792 14.464 18.16 14.096 18.608 14.096C19.064 14.096 19.432 14.464 19.432 14.92V22.928ZM24.776 21.352C24.776 21.88 24.344 22.312 23.816 22.312H22.872V15.448H23.816C24.344 15.448 24.776 15.88 24.776 16.408V21.352Z" fill="#4C9B6F"/>
<path d="M15.4936 14.9199C15.4936 14.4671 15.1264 14.0999 14.6736 14.0999C14.2208 14.0999 13.8536 14.4671 13.8536 14.9199V22.9239C13.8536 23.3767 14.2208 23.7439 14.6736 23.7439C15.1264 23.7439 15.4936 23.3767 15.4936 22.9239V14.9199Z" fill="#1F6B43"/>
<path d="M18.6104 14.0999C18.1576 14.0999 17.7904 14.4671 17.7904 14.9199V22.9239C17.7904 23.3767 18.1576 23.7439 18.6104 23.7439C19.0632 23.7439 19.4304 23.3767 19.4304 22.9239V14.9199C19.4304 14.4671 19.0632 14.0999 18.6104 14.0999Z" fill="#1F6B43"/>
<path d="M11.5576 18.2311C11.5576 17.7783 11.1904 17.4111 10.7376 17.4111C10.2848 17.4111 9.9176 17.7783 9.9176 18.2311V22.9239C9.9176 23.3767 10.2848 23.7439 10.7376 23.7439C11.1904 23.7439 11.5576 23.3767 11.5576 22.9239V18.2311Z" fill="#1F6B43"/>
<path d="M8.71203 5.60559C8.69203 5.60559 8.67363 5.61119 8.65363 5.61119C7.01283 5.64159 5.68803 6.90559 5.54083 8.51519C5.53203 8.61199 5.51123 8.70639 5.51123 8.80559V12.7304C5.51123 13.452 5.80723 14.1264 6.28323 14.6144C6.34403 14.6768 6.40563 14.7384 6.47283 14.7936C6.85763 15.1144 7.33203 15.3248 7.86323 15.352C9.29603 15.4272 10.4816 14.2872 10.4816 12.8704C10.4816 11.9536 11.2248 11.2112 12.1408 11.2112H22.2352C22.4624 11.2112 22.6784 11.1624 22.8744 11.0768C23.4392 10.8296 23.8352 10.2672 23.8352 9.61119V8.80559C23.8352 7.03839 22.4024 5.60559 20.6352 5.60559H8.71123H8.71203Z" fill="#BBD7C7"/>
</svg>
