<svg width="30" height="32" viewBox="0 0 30 32" fill="none" xmlns="http://www.w3.org/2000/svg">
<path d="M15 27.0761C7.99355 27.0761 2.18995 24.0164 1.04901 20C1.02665 20.1936 1 20.3864 1 20.5836C1 20.6211 1.0086 20.6568 1.00946 20.6933C1.10833 25.2906 7.32979 29 15 29C22.6702 29 28.8917 25.2906 28.9905 20.6933C28.9905 20.6568 29 20.6211 29 20.5836C29 20.3864 28.9733 20.1936 28.951 20C27.81 24.0164 22.0064 27.0761 15 27.0761Z" fill="#9CC6AE"/>
<path d="M28.4639 19.4661L16.4986 25.7982C15.5828 26.2826 14.4792 26.2826 13.5634 25.7982L1.53693 19.4336C1.32029 19.3188 1.15122 19.1665 1.0051 19C1.0051 19.0191 1 19.0366 1 19.0558C1 19.5152 1.08326 19.9621 1.21494 20.3999C2.34231 24.1461 8.07689 27 15 27C21.9231 27 27.6577 24.1461 28.7851 20.3999C28.9167 19.9621 29 19.5152 29 19.0558C29 19.0474 28.9974 19.0383 28.9974 19.03C28.8505 19.1973 28.6823 19.3504 28.4639 19.4661Z" fill="#1F6B43"/>
<path d="M28.8678 15.0671L28.7946 15.0317C27.3666 19.4887 21.7381 22.3288 14.9997 22.3288C8.2614 22.3288 2.60381 19.4751 1.19338 15L1.10523 15.0444C-0.114794 15.6556 -0.326358 17.238 0.478469 18.1974C0.63009 18.3778 0.805512 18.5447 1.0303 18.6698L13.5091 25.6042C14.4594 26.1319 15.6045 26.1319 16.5547 25.6042L28.9701 18.7052C29.1966 18.5792 29.3729 18.4123 29.5245 18.23C30.3329 17.2625 30.1081 15.6647 28.8687 15.0671H28.8678Z" fill="#2E8B57"/>
<path d="M15 22.9991C21.7869 22.9991 27.4553 20.0304 28.8926 15.3743C28.9308 15.2501 28.968 15.126 29 15C26.5942 18.3012 21.2365 20.6037 15 20.6037C8.76347 20.6037 3.40583 18.3021 1 15C1.0293 15.1156 1.06126 15.2284 1.09588 15.3421C2.51718 20.0181 8.19708 22.9991 15 22.9991Z" fill="#9CC6AE"/>
<path d="M14.9187 29.1121C7.22698 29.1121 0.988079 25.4171 0.888925 20.8376C0.782874 21.3399 0.710449 21.8536 0.710449 22.3905C0.710449 28.1592 7.07178 32 14.9187 32C22.7656 32 29.1269 28.1601 29.1269 22.3905C29.1269 21.8536 29.0545 21.3399 28.9485 20.8376C28.8493 25.4171 22.6104 29.1121 14.9187 29.1121Z" fill="#2E8B57"/>
<path d="M14.9187 20.4545C20.9757 20.4545 26.1791 18.2955 28.5156 15.1978C29.3571 14.0823 29.8374 12.8485 29.8374 11.5455C29.8374 6.6256 24.4133 0 14.9187 0C5.42412 0 0 6.6256 0 11.5463C0 12.8494 0.479385 14.0832 1.32176 15.1987C3.65833 18.2955 8.86172 20.4545 14.9187 20.4545ZM20.8826 4.95453C21.0964 4.68876 21.4792 4.65232 21.7361 4.87276C21.9939 5.09319 22.0293 5.48785 21.8155 5.75273C21.6792 5.92161 21.1938 6.12783 20.8593 6.25494C20.7075 6.31272 20.5515 6.17939 20.5791 6.01495C20.6394 5.65229 20.7463 5.12341 20.8826 4.95453ZM16.6284 8.70554C16.7923 8.5651 17.3061 8.45488 17.6579 8.39266C17.8174 8.36421 17.9468 8.5251 17.8907 8.68154C17.7674 9.02642 17.5674 9.52685 17.4036 9.66729C17.1458 9.88773 16.7638 9.85128 16.55 9.58552C16.3362 9.31974 16.3706 8.92598 16.6284 8.70554ZM13.6728 2.81592C13.8849 2.79548 14.3695 3.00347 14.6937 3.15814C14.8411 3.22836 14.8592 3.43546 14.7273 3.53235C14.4359 3.74479 13.997 4.04167 13.7849 4.06122C13.4512 4.09322 13.1564 3.83989 13.1253 3.4959C13.0943 3.15191 13.3391 2.84792 13.6728 2.81592ZM11.532 7.43535C11.8837 7.49757 12.3976 7.60779 12.5614 7.74823C12.8192 7.96867 12.8546 8.36333 12.6408 8.62821C12.4269 8.89398 12.0441 8.93042 11.7872 8.70998C11.6234 8.56954 11.4233 8.07 11.3 7.72423C11.244 7.56779 11.3725 7.40691 11.532 7.43535ZM7.50634 5.60518C7.64256 5.4363 8.12799 5.23008 8.46252 5.10297C8.61427 5.04519 8.77033 5.17852 8.74274 5.34296C8.68238 5.70562 8.57547 6.23538 8.43924 6.40427C8.22541 6.67004 7.8426 6.70648 7.58566 6.48604C7.32786 6.2656 7.29251 5.87006 7.50634 5.60518Z" fill="#2E8B57"/>
</svg>
