<svg width="30" height="30" viewBox="0 0 30 30" fill="none" xmlns="http://www.w3.org/2000/svg">
<path d="M28.6793 8.8727C25.2553 2.30087 18.1767 -1.44463 11.1396 0.524895C4.15676 2.47903 -0.557822 9.83155 0.0531643 17.8441C0.345479 21.6762 1.7216 25.0905 3.79416 27.7832C5.83317 30.4322 9.68997 30.748 12.1371 28.5096C12.1699 28.4797 24.8049 15.7992 28.2568 12.1266C29.0427 11.2901 29.2407 9.94979 28.6801 8.87351L28.6793 8.8727Z" fill="#2E8B57"/>
<path d="M8.30562 13.2401C8.74744 13.2401 9.10562 12.882 9.10562 12.4401C9.10562 11.9983 8.74744 11.6401 8.30562 11.6401C7.86379 11.6401 7.50562 11.9983 7.50562 12.4401C7.50562 12.882 7.86379 13.2401 8.30562 13.2401Z" fill="#BBD7C7"/>
<path d="M11.132 9.79849C11.5739 9.79849 11.932 9.44031 11.932 8.99849C11.932 8.55666 11.5739 8.19849 11.132 8.19849C10.6902 8.19849 10.332 8.55666 10.332 8.99849C10.332 9.44031 10.6902 9.79849 11.132 9.79849Z" fill="#BBD7C7"/>
<path d="M9.16562 18.8673C9.62402 18.8769 9.98002 19.2633 9.95122 19.7209C9.91762 20.2529 9.77442 20.9393 9.30642 21.3697C8.83842 21.8001 8.14242 21.8857 7.60962 21.8745C7.15122 21.8649 6.79522 21.4785 6.82402 21.0209C6.85762 20.4889 7.00082 19.8025 7.46882 19.3721C7.93682 18.9417 8.63282 18.8561 9.16562 18.8673Z" fill="#489C5E"/>
<path d="M11.0632 16.5024C11.2392 16.9264 11.028 17.4072 10.5968 17.5648C10.096 17.748 9.41042 17.8928 8.82802 17.6376C8.24562 17.3824 7.88802 16.7792 7.68322 16.2864C7.50722 15.8624 7.71842 15.3816 8.14962 15.224C8.65042 15.0408 9.33602 14.896 9.91842 15.1512C10.5008 15.4064 10.8584 16.0096 11.0632 16.5024Z" fill="#489C5E"/>
<path d="M28.7979 5.47642L28.4686 5.04599C27.3402 3.56929 25.885 2.3344 24.1574 1.62184C22.6842 1.01407 21.2355 0.838353 19.8528 1.15433C13.8981 2.51335 11.4376 12.0515 12.3573 25.1008C12.3589 25.1346 12.3613 25.1636 12.3613 25.1999C12.4266 29.8283 9 30 9 30C10.7015 29.921 11.9953 29.2133 13.0225 28.2009L28.2354 13.2057C30.3543 11.1317 30.594 7.82851 28.7971 5.47642H28.7979Z" fill="#9CC6AE"/>
</svg>
