<svg width="31" height="30" viewBox="0 0 31 30" fill="none" xmlns="http://www.w3.org/2000/svg">
<path d="M7.48557 20.2415C7.45517 20.4007 7.43677 20.5631 7.43677 20.7271C7.43677 23.1487 10.8256 25.1111 15.0064 25.1111C19.1872 25.1111 22.576 23.1479 22.576 20.7271C22.576 20.5623 22.5576 20.4007 22.5272 20.2415C20.5128 21.9951 17.8872 23.0655 15.0064 23.0655C12.1256 23.0655 9.49917 21.9959 7.48557 20.2415Z" fill="#9CC6AE"/>
<path d="M15.0063 5.55585C10.3423 5.55585 6.45033 7.46625 5.53113 10.0095C7.23273 11.9311 10.8823 13.2983 15.0063 13.2983C19.1303 13.2983 22.7807 11.9311 24.4815 10.0095C24.4295 9.86705 24.3647 9.72705 24.2943 9.58785C23.1175 7.25825 19.4079 5.55505 15.0055 5.55505L15.0063 5.55585Z" fill="#1F6B43"/>
<path d="M25.504 7.63184C25.504 7.91184 25.448 8.18384 25.368 8.45584C25.216 8.99984 24.912 9.51984 24.48 10.0078C24.432 9.86384 24.368 9.72784 24.296 9.59184C23.12 7.25584 19.408 5.55984 15.008 5.55984C10.344 5.55984 6.44796 7.46384 5.52796 10.0078C4.88796 9.27984 4.51196 8.47184 4.51196 7.63184C4.51196 4.55984 9.31996 1.95984 15.008 1.95984C20.696 1.95984 25.504 4.55984 25.504 7.63184Z" fill="#9CC6AE"/>
<path d="M26.472 8.49587V7.79187L26.4559 7.83987C26.4319 8.22387 26.3679 8.59987 26.24 8.96787C26.1679 9.18387 26.072 9.39987 25.96 9.60787C24.504 12.3119 20.152 14.2719 15.0079 14.2719C9.86395 14.2719 5.50395 12.3119 4.05595 9.60787C3.94395 9.39987 3.84795 9.18387 3.76795 8.96787C3.63995 8.59987 3.57595 8.22387 3.55195 7.83987L3.53595 7.79187V11.5999C3.53595 12.9039 3.76795 14.1519 4.16795 15.3279C4.83195 17.2479 5.98395 18.9359 7.48795 20.2399C9.50395 21.9919 12.1279 23.0639 15.0079 23.0639C17.8879 23.0639 20.5119 21.9919 22.528 20.2399C23.496 19.3919 24.3279 18.3839 24.9679 17.2559H25.8959C26.5279 17.2559 27.128 17.1199 27.6719 16.8799C29.216 16.1999 30.3039 14.6559 30.3039 12.8559C30.3039 10.6239 28.632 8.78387 26.472 8.49587ZM25.8959 15.3439H25.832C25.8373 15.3385 25.8399 15.3332 25.8399 15.3279C26.2479 14.1519 26.472 12.9039 26.472 11.5999V10.4479C27.5679 10.7039 28.3839 11.6879 28.3839 12.8559C28.3839 14.2319 27.2719 15.3439 25.8959 15.3439Z" fill="#4C9B6F"/>
<path d="M25.8424 15.3263C25.84 15.3327 25.8376 15.3383 25.836 15.3447H25.872C25.8624 15.3383 25.8512 15.3327 25.8424 15.3263Z" fill="#E5E8EB"/>
<path d="M25.8992 17.2583H24.9712C24.328 18.3871 23.4992 19.3935 22.5256 20.2415C22.556 20.4015 22.5744 20.5631 22.5744 20.7271C22.5744 23.1487 19.1856 25.1111 15.0048 25.1111C10.824 25.1111 7.43516 23.1479 7.43516 20.7271C7.43516 20.5623 7.45356 20.4007 7.48396 20.2415C5.98396 18.9351 4.82956 17.2479 4.16796 15.3263C2.01036 16.7775 0.698364 18.6615 0.698364 20.7271C0.698364 25.3031 7.10316 29.0135 15.004 29.0135C22.9048 29.0135 29.3104 25.3039 29.3104 20.7271C29.3104 19.3383 28.7136 18.0319 27.6712 16.8823C27.128 17.1223 26.5296 17.2583 25.8992 17.2583Z" fill="#BBD7C7"/>
<path d="M26.4159 6.95189C26.3359 6.50389 26.1839 6.07189 25.9599 5.65589C25.7359 5.23989 25.4399 4.83989 25.0879 4.46389C24.9119 4.27189 24.7199 4.09589 24.5199 3.91189C24.1039 3.55989 23.6319 3.23189 23.1119 2.93589C21.0399 1.72789 18.1759 0.983887 15.0079 0.983887C11.8399 0.983887 8.96795 1.72789 6.89595 2.93589C6.37595 3.23189 5.91195 3.55989 5.49595 3.91189C5.28795 4.09589 5.09595 4.27189 4.91995 4.46389C4.56795 4.83989 4.27995 5.23989 4.05595 5.65589C3.83195 6.07189 3.67195 6.50389 3.59995 6.95189C3.55995 7.17589 3.53595 7.39989 3.53595 7.63189C3.53595 7.70389 3.55195 7.76789 3.55195 7.83989C3.57595 8.22389 3.63995 8.59989 3.76795 8.96789C3.84795 9.18389 3.94395 9.39989 4.05595 9.60789C5.50395 12.3119 9.85595 14.2719 15.0079 14.2719C20.1599 14.2719 24.5039 12.3119 25.9599 9.60789C26.0719 9.39989 26.1679 9.18389 26.2399 8.96789C26.3679 8.59989 26.4319 8.22389 26.4559 7.83989C26.4639 7.76789 26.4719 7.70389 26.4719 7.63189C26.4719 7.39989 26.4559 7.17589 26.4159 6.95189ZM25.3679 8.45589C25.2159 8.99989 24.9119 9.51989 24.4799 10.0079C22.7839 11.9279 19.1279 13.2959 15.0079 13.2959C10.8879 13.2959 7.23195 11.9279 5.52795 10.0079C4.88795 9.27989 4.51195 8.47189 4.51195 7.63189C4.51195 4.55989 9.31995 1.95989 15.0079 1.95989C20.6959 1.95989 25.504 4.55989 25.504 7.63189C25.504 7.91189 25.4479 8.18389 25.3679 8.45589Z" fill="#BBD7C7"/>
</svg>
