<svg width="32" height="32" viewBox="0 0 32 32" fill="none" xmlns="http://www.w3.org/2000/svg">
<path d="M6.20981 29.6009C6.64361 30.0347 7.09451 30.4397 7.55981 30.8159C9.94931 32.7482 13.4197 30.7475 13.012 27.701C12.7753 25.9316 12.886 24.1262 13.3396 22.391H1.91861C2.69801 25.0298 4.12721 27.5183 6.20981 29.6009Z" fill="#1F6B43"/>
<path d="M22.2496 13.5745C24.0829 13.0462 26.0035 12.9031 27.8827 13.1551C30.9454 13.5655 32.9218 10.0753 30.9751 7.67681C30.6043 7.22051 30.2065 6.77771 29.7817 6.35291C27.61 4.18121 25.0054 2.71871 22.2505 1.95911V13.5754L22.2496 13.5745Z" fill="#1F6B43"/>
<path d="M1.33541 12.2947C0.178007 15.478 -0.053293 18.9205 0.640607 22.2082C0.810707 23.0164 1.52981 23.5942 2.35601 23.5942H13.0732C13.4305 22.2289 13.9903 20.9059 14.7526 19.672L1.34441 12.2911C1.34441 12.2911 1.33631 12.2911 1.33541 12.2947Z" fill="#4C9B6F"/>
<path d="M11.7187 1.79534C12.436 3.09764 19.0852 15.1774 19.0942 15.1936C20.3362 14.3701 21.6745 13.759 23.0632 13.3585V2.13284C23.0632 1.48574 22.6015 0.938543 21.9688 0.805343C18.5857 0.0961429 15.0406 0.368843 11.7799 1.63334C11.7151 1.65854 11.6845 1.73414 11.7187 1.79534Z" fill="#4C9B6F"/>
<path d="M1.1986 12.5467L14.6041 19.9258L14.6086 19.9249C15.2458 18.8935 16.0099 17.9188 16.9045 17.0242C17.6749 16.2538 18.5065 15.5851 19.3804 15.0055L11.9626 1.52979C11.5243 0.734195 10.5352 0.407495 9.7207 0.810695C7.9162 1.70439 6.2161 2.8906 4.6897 4.3711C2.8654 6.1405 1.4551 8.1727 0.459697 10.348C0.0888969 11.1571 0.419197 12.1174 1.1986 12.5467Z" fill="#9CC6AE"/>
</svg>
